<?xml version="1.0" encoding="UTF-8"?>
<svg width="200px" height="29px" viewBox="0 0 200 29" version="1.1" xmlns="http://www.w3.org/2000/svg" xmlns:xlink="http://www.w3.org/1999/xlink">
    <!-- Generator: Sketch 52.1 (67048) - http://www.bohemiancoding.com/sketch -->
    <title>SC</title>
    <desc>Created with Sketch.</desc>
    <defs>
        <polygon id="path-1" points="0.0845070422 0.266197183 14.4619718 0.266197183 14.4619718 16.8281691 0.0845070422 16.8281691"></polygon>
    </defs>
    <g id="Page-1" stroke="none" stroke-width="1" fill="none" fill-rule="evenodd">
        <g id="SC">
            <g id="Group-3" transform="translate(0.000000, 5.633803)">
                <g id="Fill-1-Clipped">
                    <mask id="mask-2" fill="white">
                        <use xlink:href="#path-1"></use>
                    </mask>
                    <g id="path-1"></g>
                    <path d="M9.93802817,5.47183099 C9.75774647,4.46478874 9.4056338,3.4 7.15633803,3.4 C4.90985916,3.4 4.61408451,4.25774647 4.61408451,4.93802817 C4.61408451,7.42253521 14.4619718,5.61830986 14.4619718,11.4140845 C14.4619718,15.9971831 10.0239437,16.8281691 7.57042254,16.8281691 C3.99014084,16.8281691 0.118309859,15.5859155 0,11.3859155 L4.25774647,11.3859155 C4.25774647,12.7169014 5.08591549,13.6915493 7.69014084,13.6915493 C9.81971831,13.6915493 10.3211268,12.656338 10.3211268,12.0647887 C10.3211268,9.43380282 0.561971831,11.4140845 0.561971831,5.52957746 C0.561971831,3.22253521 2.00985916,0.266197183 6.91971831,0.266197183 C9.9943662,0.266197183 13.6633803,1.03380282 13.9901408,5.47183099 L9.93802817,5.47183099" id="Fill-1" fill="#343534" mask="url(#mask-2)"></path>
                </g>
            </g>
            <path d="M16.0028169,22.0464788 L20.1450704,22.0464788 L20.1450704,6.31267605 L16.0028169,6.31267605 L16.0028169,22.0464788 Z M16.0028169,4.44929578 L20.1450704,4.44929578 L20.1450704,0.605633803 L16.0028169,0.605633803 L16.0028169,4.44929578 Z" id="Fill-4" fill="#343534" fill-rule="nonzero"></path>
            <g id="Group-8" transform="translate(22.179393, 5.633803)" fill="#343534">
                <path d="M22.8361008,16.4126761 L18.6966642,16.4126761 L18.6966642,6.85915493 C18.6966642,4.52394366 17.6614529,3.75492958 16.4487768,3.75492958 C14.3783543,3.75492958 13.6375093,5.11408451 13.6375093,6.97887324 L13.6375093,16.4126761 L9.50088958,16.4126761 L9.50088958,6.94929578 C9.50088958,5.61830986 9.50088958,3.75492958 7.01497405,3.75492958 C5.06426983,3.75492958 4.44314307,5.11408451 4.44314307,6.83098592 L4.44314307,16.4126761 L0.302298,16.4126761 L0.302298,0.678873239 L4.26426983,0.678873239 L4.26426983,2.98450704 L4.32483321,2.98450704 C4.85581913,1.95211267 6.00934025,0.266197183 8.78962195,0.266197183 C11.0670867,0.266197183 12.102298,1.09154929 13.1670867,2.78028169 C13.6994811,2.00985916 14.8515938,0.266197183 17.3670867,0.266197183 C20.4417346,0.266197183 22.8361008,2.06901408 22.8361008,5.52957746 L22.8361008,16.4126761" id="Fill-5"></path>
                <path d="M32.8389177,13.4253521 C35.4994811,13.4253521 36.2417346,10.5267605 36.2417346,8.66338028 C36.2417346,6.18169014 35.3530022,3.84507042 32.7206079,3.84507042 C29.8811713,3.84507042 29.2008896,6.38732395 29.2008896,8.9 C29.2008896,11.2366197 30.2065234,13.4253521 32.8389177,13.4253521 Z M29.2008896,2.95633803 L29.2600445,2.95633803 C30.0290585,1.71408451 31.1853966,0.266197183 33.9628614,0.266197183 C37.4220163,0.266197183 40.4980726,2.92676057 40.4980726,8.36901408 C40.4980726,12.6845071 38.5473684,16.8281691 33.8741289,16.8281691 C30.9769459,16.8281691 29.9389177,15.2577465 29.4389177,14.4014084 L29.3797627,14.4014084 L29.3797627,22.5352113 L25.2375093,22.5352113 L25.2375093,0.678873239 L29.2008896,0.678873239 L29.2008896,2.95633803 Z" id="Fill-7" fill-rule="nonzero"></path>
            </g>
            <polygon id="Fill-9" fill="#343534" points="64.543662 22.0464788 68.6845071 22.0464788 68.6845071 0.811267605 64.543662 0.811267605"></polygon>
            <path d="M80.9309859,12.6126761 C80.6929578,10.0690141 79.0676057,9.3 77.7366197,9.3 C75.7830986,9.3 74.7507042,10.5422535 74.5140845,12.6126761 L80.9309859,12.6126761 Z M85.0112676,17.4338028 C83.9169014,21.2197183 80.7830986,22.4619718 78.0915493,22.4619718 C73.6549296,22.4619718 70.2549296,20.3323943 70.2549296,13.8535212 C70.2549296,11.9619718 70.9042254,5.9 77.7971831,5.9 C80.9014084,5.9 85.1901408,7.37746479 85.1901408,14.5647887 L85.1901408,15.3042254 L74.3943662,15.3042254 C74.5140845,16.4859155 74.7507042,19.1492958 78.0915493,19.1492958 C79.2450704,19.1492958 80.4267605,18.556338 80.7549296,17.4338028 L85.0112676,17.4338028 Z" id="Fill-10" fill="#343534" fill-rule="nonzero"></path>
            <path d="M110.422535,16.3098592 C110.274647,17.9352113 109.002817,22.4619718 103.235211,22.4619718 C97.3211267,22.4619718 95.9605634,17.9352113 95.9605634,14.6225353 C95.9605634,9.53661972 98.1788733,5.9 103.501408,5.9 C105.984507,5.9 110.069014,7.02253521 110.453521,11.9323943 L106.253521,11.9323943 C106.074647,10.9267605 105.481691,9.38873239 103.709859,9.38873239 L103.501408,9.38873239 C100.898592,9.38873239 100.219718,11.9915493 100.219718,13.943662 C100.219718,15.6591549 100.278873,19.0591549 103.412676,19.0591549 C105.512676,19.0591549 106.221126,17.0478874 106.221126,16.3098592 L110.422535,16.3098592" id="Fill-11" fill="#343534"></path>
            <path d="M119.180282,9.38873239 C115.983099,9.38873239 115.394366,12.1676057 115.394366,14.1802817 C115.394366,16.1901408 115.983099,18.9704225 119.180282,18.9704225 C122.371831,18.9704225 122.964788,16.1901408 122.964788,14.1802817 C122.964788,12.1676057 122.371831,9.38873239 119.180282,9.38873239 Z M119.180282,22.4619718 C114.949296,22.4619718 111.135212,19.8591549 111.135212,14.1802817 C111.135212,8.50281691 114.949296,5.9 119.180282,5.9 C123.408451,5.9 127.223943,8.50281691 127.223943,14.1802817 C127.223943,19.8591549 123.408451,22.4619718 119.180282,22.4619718 Z" id="Fill-12" fill="#343534" fill-rule="nonzero"></path>
            <path d="M134.294366,22.0464788 L130.156338,22.0464788 L130.156338,9.27042254 L127.878874,9.27042254 L127.878874,6.31267605 L130.156338,6.31267605 L130.156338,5.04084507 C130.156338,1.78873239 131.930986,0.546478874 134.769014,0.546478874 C135.981691,0.546478874 136.543662,0.574647887 136.9,0.605633803 L136.9,3.94647887 L135.745071,3.94647887 C134.326761,3.94647887 134.294366,4.39154929 134.294366,5.69295775 L134.294366,6.31267605 L136.984507,6.31267605 L136.984507,9.27042254 L134.294366,9.27042254 L134.294366,22.0464788" id="Fill-13" fill="#343534"></path>
            <path d="M144.116901,22.0464788 L139.976057,22.0464788 L139.976057,9.27042254 L137.698592,9.27042254 L137.698592,6.31267605 L139.976057,6.31267605 L139.976057,5.04084507 C139.976057,1.78873239 141.749296,0.546478874 144.590141,0.546478874 C145.801408,0.546478874 146.36338,0.574647887 146.719718,0.605633803 L146.719718,3.94647887 L145.564788,3.94647887 C144.146479,3.94647887 144.116901,4.39154929 144.116901,5.69295775 L144.116901,6.31267605 L146.807042,6.31267605 L146.807042,9.27042254 L144.116901,9.27042254 L144.116901,22.0464788" id="Fill-14" fill="#343534"></path>
            <path d="M157.632395,12.6126761 C157.395775,10.0690141 155.769014,9.3 154.438028,9.3 C152.487324,9.3 151.452113,10.5422535 151.215493,12.6126761 L157.632395,12.6126761 Z M161.715493,17.4338028 C160.618309,21.2197183 157.485916,22.4619718 154.792958,22.4619718 C150.357746,22.4619718 146.957746,20.3323943 146.957746,13.8535212 C146.957746,11.9619718 147.608451,5.9 154.495775,5.9 C157.604225,5.9 161.892958,7.37746479 161.892958,14.5647887 L161.892958,15.3042254 L151.097183,15.3042254 C151.215493,16.4859155 151.452113,19.1492958 154.792958,19.1492958 C155.947887,19.1492958 157.129578,18.556338 157.457746,17.4338028 L161.715493,17.4338028 Z" id="Fill-15" fill="#343534" fill-rule="nonzero"></path>
            <path d="M173.253521,12.6126761 C173.016901,10.0690141 171.388733,9.3 170.059155,9.3 C168.105634,9.3 167.071831,10.5422535 166.835212,12.6126761 L173.253521,12.6126761 Z M177.332395,17.4338028 C176.239437,21.2197183 173.104225,22.4619718 170.412676,22.4619718 C165.977465,22.4619718 162.577465,20.3323943 162.577465,13.8535212 C162.577465,11.9619718 163.226761,5.9 170.118309,5.9 C173.222535,5.9 177.511267,7.37746479 177.511267,14.5647887 L177.511267,15.3042254 L166.718309,15.3042254 C166.835212,16.4859155 167.071831,19.1492958 170.412676,19.1492958 C171.567605,19.1492958 172.750704,18.556338 173.077465,17.4338028 L177.332395,17.4338028 Z" id="Fill-16" fill="#343534" fill-rule="nonzero"></path>
            <polyline id="Fill-17" fill="#E5702A" points="199.622535 22.4957746 199.622535 1.28309859 197.325353 4.25774647 192.732395 4.25774647 192.732395 1.28309859 184.590141 12.2450704 192.038028 12.2450704 187.122535 22.4957746"></polyline>
        </g>
    </g>
</svg>